<svg width="19" height="14" viewBox="0 0 19 14" fill="none" xmlns="http://www.w3.org/2000/svg">
<path d="M15.5873 1.15918C17.5209 4.03027 18.4877 7.25293 18.1362 10.9736C18.1362 10.9736 18.1362 11.0029 18.1069 11.0029C16.8178 11.9697 15.353 12.7021 13.8002 13.1709C13.7709 13.1709 13.7416 13.1709 13.7416 13.1709C13.4194 12.7021 13.1264 12.2334 12.8627 11.7354V11.7061C12.8627 11.6768 12.8627 11.6768 12.892 11.6475C13.3608 11.4717 13.8002 11.2666 14.2397 11.0029C14.269 11.0029 14.269 11.0029 14.269 10.9736C14.269 10.9443 14.269 10.9443 14.2397 10.915C14.1518 10.8564 14.0639 10.7979 13.976 10.71H13.9467H13.9174C11.1342 11.999 8.08734 11.999 5.27484 10.71C5.24554 10.71 5.24554 10.71 5.24554 10.71C5.21625 10.71 5.21625 10.71 5.21625 10.71C5.12836 10.7979 5.04047 10.8564 4.95258 10.915C4.92328 10.9443 4.92328 10.9443 4.92328 10.9736C4.92328 11.0029 4.92328 11.0029 4.95258 11.0029C5.36273 11.2666 5.83148 11.4717 6.30023 11.6475C6.30023 11.6768 6.32953 11.6768 6.32953 11.7061V11.7354C6.06586 12.2334 5.77289 12.7021 5.45062 13.1709C5.42133 13.1709 5.42133 13.1709 5.39203 13.1709C3.81 12.7021 2.34515 11.9697 1.08539 11.0029C1.05609 11.0029 1.05609 10.9736 1.05609 10.9736C0.763123 7.75098 1.37836 4.49902 3.60492 1.15918C3.60492 1.15918 3.60492 1.15918 3.63422 1.15918C4.7182 0.661133 5.91937 0.280273 7.12054 0.0751953C7.12054 0.0751953 7.12054 0.0751953 7.14984 0.0751953H7.17914C7.35492 0.368164 7.5014 0.69043 7.61859 0.983398C8.26312 0.895508 8.90765 0.836914 9.58148 0.836914C10.2553 0.836914 10.9291 0.895508 11.5737 0.983398C11.6909 0.69043 11.8373 0.368164 12.0131 0.0751953L12.0424 0.0458984C12.0424 0.0458984 12.0424 0.0751953 12.0717 0.0751953C13.2729 0.280273 14.4741 0.661133 15.558 1.15918C15.5873 1.15918 15.5873 1.15918 15.5873 1.15918ZM6.73969 9.01074C7.58929 9.01074 8.29242 8.21973 8.29242 7.28223C8.29242 6.31543 7.61859 5.55371 6.73969 5.55371C5.89008 5.55371 5.18695 6.31543 5.18695 7.28223C5.18695 8.21973 5.89008 9.01074 6.73969 9.01074ZM12.4526 9.01074C13.3315 9.01074 14.0053 8.21973 14.0053 7.28223C14.0346 6.31543 13.3315 5.55371 12.4526 5.55371C11.603 5.55371 10.9291 6.31543 10.9291 7.28223C10.9291 8.21973 11.603 9.01074 12.4526 9.01074Z" fill="#0F051D"/>
</svg>
