<svg width="14" height="14" viewBox="0 0 14 14" fill="none" xmlns="http://www.w3.org/2000/svg">
<path d="M6.86078 3.23926C8.70648 3.23926 10.2299 4.7627 10.2299 6.6084C10.2299 8.4834 8.70648 9.97754 6.86078 9.97754C4.98578 9.97754 3.49164 8.4834 3.49164 6.6084C3.49164 4.7627 4.98578 3.23926 6.86078 3.23926ZM6.86078 8.80566C8.06195 8.80566 9.02875 7.83887 9.02875 6.6084C9.02875 5.40723 8.06195 4.44043 6.86078 4.44043C5.63031 4.44043 4.66351 5.40723 4.66351 6.6084C4.66351 7.83887 5.65961 8.80566 6.86078 8.80566ZM11.1381 3.12207C11.1381 3.56152 10.7866 3.91309 10.3471 3.91309C9.90765 3.91309 9.55609 3.56152 9.55609 3.12207C9.55609 2.68262 9.90765 2.33105 10.3471 2.33105C10.7866 2.33105 11.1381 2.68262 11.1381 3.12207ZM13.3647 3.91309C13.4233 4.99707 13.4233 8.24902 13.3647 9.33301C13.3061 10.3877 13.0717 11.2959 12.31 12.0869C11.5483 12.8486 10.6108 13.083 9.55609 13.1416C8.47211 13.2002 5.22015 13.2002 4.13617 13.1416C3.08148 13.083 2.17328 12.8486 1.38226 12.0869C0.620544 11.2959 0.386169 10.3877 0.327576 9.33301C0.268982 8.24902 0.268982 4.99707 0.327576 3.91309C0.386169 2.8584 0.620544 1.9209 1.38226 1.15918C2.17328 0.397461 3.08148 0.163086 4.13617 0.104492C5.22015 0.0458984 8.47211 0.0458984 9.55609 0.104492C10.6108 0.163086 11.5483 0.397461 12.31 1.15918C13.0717 1.9209 13.3061 2.8584 13.3647 3.91309ZM11.9584 10.4756C12.31 9.62598 12.2221 7.5752 12.2221 6.6084C12.2221 5.6709 12.31 3.62012 11.9584 2.74121C11.7241 2.18457 11.2846 1.71582 10.728 1.51074C9.84906 1.15918 7.79828 1.24707 6.86078 1.24707C5.89398 1.24707 3.8432 1.15918 2.99359 1.51074C2.40765 1.74512 1.9682 2.18457 1.73383 2.74121C1.38226 3.62012 1.47015 5.6709 1.47015 6.6084C1.47015 7.5752 1.38226 9.62598 1.73383 10.4756C1.9682 11.0615 2.40765 11.501 2.99359 11.7354C3.8432 12.0869 5.89398 11.999 6.86078 11.999C7.79828 11.999 9.84906 12.0869 10.728 11.7354C11.2846 11.501 11.7534 11.0615 11.9584 10.4756Z" fill="#0F051D"/>
</svg>
