<svg width="16" height="13" viewBox="0 0 16 13" fill="none" xmlns="http://www.w3.org/2000/svg">
<path d="M13.558 3.56152C13.558 3.70801 13.558 3.8252 13.558 3.97168C13.558 8.04395 10.4819 12.7021 4.82758 12.7021C3.06976 12.7021 1.45844 12.2041 0.110779 11.3252C0.345154 11.3545 0.579529 11.3838 0.843201 11.3838C2.27875 11.3838 3.59711 10.8857 4.65179 10.0654C3.30414 10.0361 2.16156 9.15723 1.7807 7.92676C1.98578 7.95605 2.16156 7.98535 2.36664 7.98535C2.63031 7.98535 2.92328 7.92676 3.15765 7.86816C1.7514 7.5752 0.696716 6.34473 0.696716 4.85059V4.82129C1.10687 5.05566 1.60492 5.17285 2.10297 5.20215C1.25336 4.64551 0.726013 3.70801 0.726013 2.65332C0.726013 2.06738 0.872498 1.54004 1.13617 1.10059C2.65961 2.94629 4.94476 4.17676 7.49359 4.32324C7.435 4.08887 7.4057 3.85449 7.4057 3.62012C7.4057 1.9209 8.78265 0.543945 10.4819 0.543945C11.3608 0.543945 12.1518 0.895508 12.7377 1.51074C13.4116 1.36426 14.0854 1.10059 14.6713 0.749023C14.437 1.48145 13.9682 2.06738 13.3237 2.44824C13.9389 2.38965 14.5541 2.21387 15.0815 1.97949C14.6713 2.59473 14.144 3.12207 13.558 3.56152Z" fill="#0F051D"/>
</svg>
