<svg width="41" height="41" viewBox="0 0 41 41" fill="none" xmlns="http://www.w3.org/2000/svg">
<g id="circle-02.svg" clip-path="url(#clip0_21_1898)">
<path id="Vector" fill-rule="evenodd" clip-rule="evenodd" d="M20.3568 38.1746C30.1293 38.1746 38.0515 30.2525 38.0515 20.48C38.0515 10.7075 30.1293 2.78532 20.3568 2.78532C10.5843 2.78532 2.66212 10.7075 2.66212 20.48C2.66212 30.2525 10.5843 38.1746 20.3568 38.1746ZM20.3568 40.2259C31.2622 40.2259 40.1027 31.3854 40.1027 20.48C40.1027 9.5746 31.2622 0.734039 20.3568 0.734039C9.4514 0.734039 0.61084 9.5746 0.61084 20.48C0.61084 31.3854 9.4514 40.2259 20.3568 40.2259Z" fill="#1F2128"/>
<path id="Vector_2" fill-rule="evenodd" clip-rule="evenodd" d="M20.3568 38.1746C30.1293 38.1746 38.0515 30.2525 38.0515 20.48C38.0515 10.7075 30.1293 2.78532 20.3568 2.78532C10.5843 2.78532 2.66212 10.7075 2.66212 20.48C2.66212 30.2525 10.5843 38.1746 20.3568 38.1746ZM20.3568 40.2259C31.2622 40.2259 40.1027 31.3854 40.1027 20.48C40.1027 9.5746 31.2622 0.734039 20.3568 0.734039C9.4514 0.734039 0.61084 9.5746 0.61084 20.48C0.61084 31.3854 9.4514 40.2259 20.3568 40.2259Z" fill="white" fill-opacity="0.45"/>
</g>
<defs>
<clipPath id="clip0_21_1898">
<rect width="40" height="40" fill="white" transform="translate(0.61084 0.553314)"/>
</clipPath>
</defs>
</svg>
