<svg width="81" height="81" viewBox="0 0 81 81" fill="none" xmlns="http://www.w3.org/2000/svg">
<path id="Vector" d="M40.8008 0.143311L44.7026 20.5276L56.1081 3.18813L51.9122 23.5139L69.085 11.8591L57.4301 29.0319L77.7559 24.836L60.4165 36.2415L80.8008 40.1433L60.4165 44.0451L77.7559 55.4506L57.4301 51.2547L69.085 68.4276L51.9122 56.7727L56.1081 77.0985L44.7026 59.7591L40.8008 80.1433L36.899 59.7591L25.4935 77.0985L29.6894 56.7727L12.5165 68.4276L24.1714 51.2547L3.8456 55.4506L21.185 44.0451L0.800781 40.1433L21.185 36.2415L3.8456 24.836L24.1714 29.0319L12.5165 11.8591L29.6894 23.5139L25.4935 3.18813L36.899 20.5276L40.8008 0.143311Z" fill="#CFD2DD"/>
</svg>
