<svg width="171" height="44" viewBox="0 0 171 44" fill="none" xmlns="http://www.w3.org/2000/svg">
<g id="wallet-04.svg" clip-path="url(#clip0_21_1954)">
<path id="Vector" d="M14.6704 14.8466C16.6475 14.6973 19.573 14.159 22.4167 12.2775C25.2649 14.1619 28.1956 14.6988 30.1768 14.8473C30.0851 18.4675 29.9053 21.0598 29.6183 22.9686C29.2788 25.2267 28.8159 26.3243 28.3414 26.9837C27.8779 27.628 27.2615 28.0638 26.042 28.7378C25.8492 28.8444 25.6436 28.9557 25.4261 29.0735L25.4248 29.0742C24.5861 29.5284 23.5693 30.0792 22.4168 30.8247C21.2662 30.0803 20.2512 29.5301 19.414 29.0762C19.1951 28.9576 18.9883 28.8455 18.7944 28.7383C17.5768 28.0646 16.9624 27.6291 16.5003 26.9856C16.0271 26.3263 15.5655 25.2285 15.2271 22.9697C14.941 21.0603 14.762 18.4674 14.6704 14.8466Z" fill="#009FE8"/>
<path id="Vector_2" fill-rule="evenodd" clip-rule="evenodd" d="M15.0545 0.143311H29.0662C36.9762 0.143311 43.3885 6.55562 43.3885 14.4656V28.4773C43.3885 36.3873 36.9762 42.7997 29.0662 42.7997H15.0545C7.14449 42.7997 0.732178 36.3873 0.732178 28.4773V14.4656C0.732178 6.55562 7.14449 0.143311 15.0545 0.143311ZM23.76 8.05969C22.9822 7.41009 21.851 7.41009 21.0732 8.05969C17.8727 10.7329 14.2211 10.715 12.7333 10.7077C12.6616 10.7073 12.5949 10.707 12.5336 10.707C11.9723 10.707 11.4345 10.9321 11.0406 11.3321C10.6467 11.7319 10.4297 12.273 10.4382 12.8343C10.5101 17.6005 10.7003 21.0436 11.082 23.5907C11.4631 26.135 12.0621 27.9904 13.0955 29.4298C14.1402 30.885 15.4786 31.6939 16.7654 32.4058C16.9944 32.5324 17.2255 32.6579 17.46 32.7853C18.574 33.3902 19.7664 34.0378 21.1951 35.0627C21.9252 35.5865 22.908 35.5865 23.6382 35.0627C25.0681 34.0369 26.2622 33.389 27.378 32.7836C27.6113 32.657 27.8413 32.5321 28.0693 32.4062C29.3568 31.6946 30.6969 30.8862 31.7435 29.4317C32.7792 27.9924 33.3802 26.1369 33.7629 23.5918C34.146 21.0441 34.3371 17.6007 34.4089 12.8343C34.4174 12.273 34.2004 11.7319 33.8065 11.3321C33.4126 10.9321 32.8748 10.707 32.3136 10.707C32.2516 10.707 32.1842 10.7073 32.1119 10.7077C30.6118 10.7149 26.9604 10.7327 23.76 8.05969Z" fill="#009FE8"/>
<path id="Vector_3" d="M57.6971 17.3162H53.0664V14.587H65.6764V17.3162H61.0457V29.0584H57.6971V17.3162ZM68.8489 19.4041C69.2346 18.8665 69.7517 18.4598 70.3991 18.1841C71.0606 17.9088 71.8183 17.7707 72.6727 17.7707V20.7479C72.3153 20.7202 72.0741 20.7063 71.9496 20.7063C71.0261 20.7063 70.303 20.9682 69.7789 21.492C69.2552 22.0019 68.9933 22.7736 68.9933 23.8073V29.0584H65.7684V17.9361H68.8489V19.4041ZM84.6362 17.9361V29.0584H81.5758V27.7351C81.1486 28.2173 80.6391 28.5895 80.046 28.8515C79.4536 29.0995 78.8128 29.2237 78.1235 29.2237C76.6628 29.2237 75.5056 28.8032 74.6512 27.9626C73.7968 27.122 73.3695 25.8747 73.3695 24.2207V17.9361H76.5937V23.7452C76.5937 25.5368 77.3451 26.4328 78.8473 26.4328C79.6188 26.4328 80.2396 26.1848 80.7083 25.6883C81.1763 25.1784 81.4106 24.4276 81.4106 23.4351V17.9361H84.6362ZM90.125 29.2237C89.2015 29.2237 88.2986 29.1133 87.4172 28.893C86.5345 28.6584 85.8321 28.3692 85.3081 28.0247L86.3831 25.7093C86.8794 26.0262 87.4788 26.288 88.1818 26.4945C88.8849 26.6876 89.5734 26.7841 90.2488 26.7841C91.6134 26.7841 92.2957 26.4467 92.2957 25.771C92.2957 25.4542 92.109 25.2267 91.7378 25.089C91.3652 24.9514 90.7935 24.8339 90.0213 24.7373C89.1123 24.5997 88.3609 24.441 87.7684 24.2623C87.1753 24.0831 86.6589 23.7658 86.2179 23.3113C85.7906 22.8563 85.577 22.2088 85.577 21.3678C85.577 20.6652 85.7768 20.0449 86.1764 19.5073C86.5898 18.9558 87.1822 18.5286 87.9544 18.2256C88.7397 17.9226 89.6632 17.7707 90.7244 17.7707C91.5104 17.7707 92.2888 17.8605 93.0603 18.0398C93.8462 18.205 94.494 18.4392 95.0042 18.7422L93.9285 21.037C92.9503 20.486 91.8823 20.2103 90.7244 20.2103C90.0352 20.2103 89.5188 20.3068 89.1738 20.4994C88.8295 20.6925 88.6574 20.9405 88.6574 21.2439C88.6574 21.5885 88.8434 21.8294 89.2153 21.9675C89.5872 22.1051 90.1803 22.2361 90.9933 22.3603C91.903 22.5118 92.6469 22.6771 93.2255 22.8564C93.8048 23.0217 94.3073 23.3319 94.7346 23.7868C95.1618 24.2412 95.3754 24.8754 95.3754 25.6883C95.3754 26.3774 95.1694 26.991 94.756 27.5282C94.3419 28.0658 93.7356 28.4863 92.9365 28.7893C92.1512 29.0789 91.2138 29.2237 90.125 29.2237ZM103.299 28.5207C102.982 28.7549 102.589 28.9341 102.12 29.0584C101.665 29.1683 101.183 29.2237 100.673 29.2237C99.3503 29.2237 98.3237 28.8859 97.593 28.2106C96.8762 27.5353 96.5181 26.5428 96.5181 25.2338V20.6652H94.8023V18.1841H96.5181V15.4763H99.7429V18.1841H102.513V20.6652H99.7429V25.1923C99.7429 25.6611 99.8605 26.0262 100.094 26.2881C100.342 26.5361 100.687 26.6603 101.128 26.6603C101.638 26.6603 102.072 26.5222 102.431 26.2465L103.299 28.5207ZM130.582 14.587L125.848 29.0584H122.251L119.067 19.2593L115.78 29.0584H112.204L107.449 14.587H110.922L114.189 24.7583L117.6 14.587H120.7L124.008 24.841L127.378 14.587H130.582ZM134.642 17.7707C136.365 17.7707 137.688 18.1841 138.611 19.0113C139.535 19.8242 139.996 21.0576 139.996 22.7116V29.0584H136.978V27.673C136.372 28.7066 135.242 29.2237 133.588 29.2237C132.733 29.2237 131.99 29.0789 131.355 28.7893C130.735 28.5002 130.259 28.1002 129.929 27.5903C129.598 27.0804 129.432 26.5017 129.432 25.8537C129.432 24.8205 129.819 24.0071 130.59 23.4145C131.376 22.822 132.582 22.5257 134.208 22.5257H136.772C136.772 21.8227 136.558 21.2851 136.13 20.9132C135.703 20.5272 135.062 20.3341 134.208 20.3341C133.615 20.3341 133.03 20.4306 132.451 20.6237C131.886 20.8028 131.403 21.0509 131.004 21.3678L129.846 19.1145C130.452 18.6873 131.176 18.3566 132.017 18.1224C132.871 17.8878 133.747 17.7707 134.642 17.7707ZM134.394 27.0527C134.946 27.0527 135.435 26.9289 135.862 26.6809C136.289 26.419 136.592 26.0401 136.772 25.544V24.4066H134.559C133.237 24.4066 132.575 24.841 132.575 25.7093C132.575 26.1227 132.733 26.4534 133.05 26.7014C133.381 26.9356 133.829 27.0527 134.394 27.0527ZM141.675 13.7191H144.899V29.0584H141.675V13.7191ZM146.653 13.7191H149.877V29.0584H146.653V13.7191ZM162.525 23.5383C162.525 23.5799 162.505 23.8695 162.462 24.4066H154.049C154.201 25.0957 154.559 25.6401 155.124 26.0401C155.689 26.4395 156.391 26.6393 157.233 26.6393C157.811 26.6393 158.322 26.5567 158.763 26.3913C159.217 26.2121 159.638 25.9368 160.023 25.5645L161.739 27.425C160.692 28.624 159.162 29.2237 157.15 29.2237C155.896 29.2237 154.786 28.9824 153.821 28.5002C152.857 28.0037 152.112 27.3217 151.589 26.4534C151.065 25.5851 150.803 24.5997 150.803 23.4972C150.803 22.4086 151.058 21.4298 151.568 20.5616C152.092 19.6798 152.802 18.9974 153.697 18.5152C154.607 18.0187 155.62 17.7707 156.736 17.7707C157.825 17.7707 158.811 18.0053 159.692 18.4737C160.574 18.9424 161.264 19.6177 161.76 20.4994C162.269 21.3678 162.525 22.3808 162.525 23.5383ZM156.757 20.2103C156.026 20.2103 155.413 20.4168 154.918 20.8306C154.421 21.244 154.118 21.8088 154.007 22.5257H159.486C159.376 21.8227 159.072 21.2645 158.576 20.8512C158.08 20.4239 157.473 20.2103 156.757 20.2103ZM170.604 28.5207C170.288 28.7549 169.895 28.9341 169.426 29.0584C168.972 29.1683 168.49 29.2237 167.98 29.2237C166.656 29.2237 165.63 28.8859 164.899 28.2106C164.182 27.5353 163.824 26.5428 163.824 25.2338V20.6652H162.108V18.1841H163.824V15.4763H167.049V18.1841H169.82V20.6652H167.049V25.1923C167.049 25.6611 167.166 26.0262 167.4 26.2881C167.648 26.5361 167.993 26.6603 168.434 26.6603C168.944 26.6603 169.378 26.5222 169.737 26.2465L170.604 28.5207Z" fill="#222222"/>
</g>
<defs>
<clipPath id="clip0_21_1954">
<rect width="170.057" height="42.86" fill="white" transform="translate(0.732178 0.143311)"/>
</clipPath>
</defs>
</svg>
