<svg width="128" height="35" viewBox="0 0 128 35" fill="none" xmlns="http://www.w3.org/2000/svg">
<g clip-path="url(#clip0_21_1960)">
<path d="M24.4478 17.3806L34.2717 27.2044H30.7955C30.2099 27.2044 29.6242 26.9587 29.2086 26.5432L20.0838 17.3806L29.2464 8.19907C29.662 7.78342 30.2288 7.53784 30.8333 7.55672H34.2717L24.4478 17.3806ZM6.44381 8.19907C6.02819 7.78342 5.46143 7.53784 4.85688 7.55672H1.39966L11.2234 17.3806L1.39966 27.2044H4.87578C5.46143 27.2044 6.04708 26.9587 6.4627 26.5432L15.6064 17.3617L6.44381 8.19907ZM17.8357 19.6287L8.65419 28.7913C8.23854 29.2069 8.01184 29.7736 8.01184 30.3782V33.8354L17.8357 24.0117L27.6595 33.8354V30.3593C27.6595 29.7736 27.4327 29.188 27.0172 28.7724L17.8357 19.6287ZM17.8357 15.1324L27.0172 5.96981C27.4327 5.55419 27.6595 4.98743 27.6595 4.38289V0.925659L17.8357 10.7495L8.01184 0.925659V4.38289C8.01184 4.96854 8.23854 5.55419 8.65419 5.96981L17.8357 15.1324Z" fill="url(#paint0_linear_21_1960)"/>
<path fill-rule="evenodd" clip-rule="evenodd" d="M107.745 5.69585V25.8913C107.726 26.2125 107.858 26.5337 108.085 26.7793C108.312 27.0248 108.633 27.1571 108.954 27.1571H109.313C109.653 27.1571 109.975 27.0248 110.201 26.7793C110.427 26.5337 110.56 26.2125 110.56 25.8913V5.69585H112.903V26.4203C112.903 27.9884 111.656 29.2541 110.088 29.2919H108.293C107.518 29.2919 106.782 29.0085 106.234 28.4607C105.686 27.9127 105.384 27.1949 105.384 26.4203V5.69585H107.745ZM124.408 5.46914C125.976 5.50693 127.242 6.98051 127.242 8.56743V10.4377C127.242 10.7022 127.071 10.9289 126.807 11.0045L124.861 11.5523V8.86969C124.861 8.18959 124.294 7.62281 123.615 7.62281C122.934 7.62281 122.367 8.17072 122.367 8.86969V11.0989C122.367 12.4781 123.388 14.235 123.388 14.235L126.184 19.6192C127.318 21.754 127.223 23.322 127.223 23.322V26.307C127.223 27.0815 126.921 27.8372 126.372 28.404C125.825 28.9707 125.069 29.273 124.276 29.2919H122.802C121.215 29.1974 119.968 27.8939 119.968 26.307V22.9631C119.968 22.6986 120.138 22.4719 120.403 22.3963L122.349 21.8485V25.9291C122.349 26.6092 122.916 27.1571 123.615 27.1571C124.294 27.1571 124.861 26.5904 124.842 25.8913V23.2276C124.842 21.8674 123.822 20.0537 123.822 20.0537L121.064 14.6695C119.93 12.5348 120.025 10.9667 120.025 10.9667V8.56743C120.025 6.94272 121.328 5.46914 122.972 5.46914H124.408ZM80.1816 5.46914C81.769 5.54472 83.0155 6.86715 83.0155 8.45404V26.3825C82.9969 27.9506 81.7496 29.2352 80.1816 29.3108H78.3868C76.7815 29.2919 75.4776 27.9883 75.4589 26.3825V8.43517C75.4589 7.66063 75.761 6.90493 76.3093 6.33818C76.8568 5.77142 77.6125 5.46914 78.4062 5.45026L80.1816 5.46914ZM53.2608 5.69585L52.694 7.66063C52.6184 7.92508 52.3917 8.09515 52.1273 8.09515H48.3678V15.6141H52.2595L51.6928 17.5789C51.6172 17.8245 51.3905 18.0134 51.126 18.0134H48.3678V26.6848H53.2608L52.7129 28.6307C52.6374 28.8952 52.4107 29.0652 52.1462 29.0652H46.0251V5.69585H53.2608ZM95.0308 5.69585C96.6555 5.71475 97.94 7.01829 97.94 8.62412V26.118C97.94 27.7239 96.6368 29.0463 95.0308 29.0463H90.4968V5.69585H95.0308ZM64.1614 13.2149L66.3152 5.69585H68.7144L65.3705 17.3899L68.7333 29.0841H66.334L64.1614 21.5462L62.0077 29.0652H59.6085L62.9524 17.3899L59.5896 5.69585H61.9889L64.1614 13.2149ZM79.3886 27.1949C79.7281 27.1949 80.0496 27.0438 80.2763 26.7981C80.5031 26.5526 80.6351 26.2314 80.6165 25.8913V8.86969C80.6351 8.52961 80.5031 8.20847 80.2763 7.9629C80.0496 7.71732 79.7281 7.58506 79.3886 7.56612H79.0291C78.3301 7.60394 77.7826 8.17072 77.7826 8.86969V25.8913C77.7826 26.5904 78.3301 27.1571 79.0291 27.1949H79.3886ZM94.3698 26.7037C95.0308 26.7037 95.6164 26.3637 95.6164 25.4568V9.30421C95.6164 8.43517 95.0308 8.09515 94.3698 8.09515H92.8391V26.7037H94.3698Z" fill="#222222"/>
</g>
<defs>
<linearGradient id="paint0_linear_21_1960" x1="1.3887" y1="17.377" x2="22.1734" y2="17.377" gradientUnits="userSpaceOnUse">
<stop stop-color="#00BFFF"/>
<stop offset="1" stop-color="#6619FF"/>
</linearGradient>
<clipPath id="clip0_21_1960">
<rect width="126.52" height="33.8769" fill="white" transform="translate(0.790771 0.634827)"/>
</clipPath>
</defs>
</svg>
