<svg width="113" height="29" viewBox="0 0 113 29" fill="none" xmlns="http://www.w3.org/2000/svg">
<g id="wallet-02.svg" clip-path="url(#clip0_21_1938)">
<path id="Vector" d="M12.0127 18.1526C13.118 18.1705 15.523 18.2094 15.54 16.6666C15.5568 15.0701 13.1661 15.1192 12.0428 15.1423C11.9271 15.1446 11.825 15.1467 11.7402 15.1467V18.1495C11.8177 18.1495 11.9096 18.151 12.0127 18.1526Z" fill="#009FE8"/>
<path id="Vector_2" d="M11.9227 13.7801C12.8136 13.8102 14.911 13.881 14.9283 12.4405C14.9451 10.9794 12.9532 11.0247 12.0136 11.0461C11.9162 11.0483 11.8301 11.0504 11.7588 11.0504V13.7751C11.8072 13.7762 11.8621 13.7781 11.9227 13.7801Z" fill="#009FE8"/>
<path id="Vector_3" fill-rule="evenodd" clip-rule="evenodd" d="M24.5482 9.90115C24.5482 24.6925 12.7041 28.7147 12.7041 28.7147C12.7041 28.7147 0.859863 24.6925 0.859863 9.90115V4.58148C0.859863 4.00688 1.30471 3.52496 1.87932 3.48789C4.02943 3.39521 9.12673 2.95035 12.7041 1.0412C16.2814 2.95035 21.3787 3.39521 23.5288 3.48789C24.1034 3.52496 24.5482 4.00688 24.5482 4.58148V9.90115ZM14.2054 9.51192C15.9663 9.67871 17.3379 10.2348 17.4862 11.8474C17.5974 13.0337 17.097 13.738 16.2999 14.1087C17.5974 14.4238 18.3945 15.2208 18.2276 16.9447C18.0052 19.0948 16.4111 19.6693 14.1128 19.7805V22.0419H12.7411V19.8177C12.3889 19.8177 12.0182 19.8177 11.6475 19.7991V22.0419H10.2944V19.7805C9.97935 19.762 7.81064 19.7805 7.81064 19.7805L7.82924 18.1309H9.36769V10.9206H7.62533V9.4934C7.62533 9.4934 10.072 9.4748 10.3686 9.4748L10.35 7.23204H11.7216V9.43775H12.8338V7.25057H14.2054V9.51192Z" fill="#009FE8"/>
<path id="Vector_4" d="M48.2536 19.7158C48.2536 20.902 48.0126 21.8844 47.5493 22.6814C47.0859 23.4784 46.4556 24.1272 45.6957 24.6091C44.9172 25.091 44.046 25.4432 43.0637 25.6656C42.0812 25.8695 41.0618 25.9807 40.0424 25.9807H31.4604V4.42395H40.0424C40.8764 4.42395 41.7291 4.51662 42.6003 4.68344C43.4714 4.85027 44.2685 5.14683 44.9728 5.57315C45.6772 5.99947 46.2518 6.55553 46.7152 7.25989C47.16 7.9642 47.3824 8.87247 47.3824 9.96605C47.3824 11.1708 47.0674 12.1533 46.4001 12.9317C45.7513 13.7102 44.8987 14.2849 43.8421 14.6184V14.6741C44.4538 14.7853 45.0284 14.9706 45.566 15.2487C46.1035 15.5267 46.5668 15.8789 46.9561 16.3052C47.3454 16.7315 47.6605 17.232 47.9015 17.8065C48.1238 18.3626 48.2536 18.9928 48.2536 19.7158ZM42.3408 10.6704C42.3408 9.94752 42.0627 9.41003 41.5067 9.07638C40.9506 8.74272 40.1165 8.57586 39.0229 8.57586H36.465V13.0244H39.2639C40.2463 13.0244 40.9877 12.8205 41.5252 12.4313C42.0812 12.0235 42.3408 11.4304 42.3408 10.6704ZM43.0451 19.2153C43.0451 18.3256 42.7115 17.6954 42.0442 17.3617C41.3769 17.0096 40.4872 16.8427 39.3565 16.8427H36.465V21.7732H39.3936C39.8014 21.7732 40.2277 21.7361 40.654 21.662C41.0804 21.5878 41.4881 21.4581 41.8403 21.2913C42.1925 21.1059 42.4891 20.8464 42.7115 20.5127C42.9339 20.1791 43.0451 19.7528 43.0451 19.2153Z" fill="#222222"/>
<path id="Vector_5" d="M55.1674 5.98097C55.1674 6.37021 55.0932 6.72239 54.945 7.05603C54.7967 7.3897 54.5928 7.68623 54.3333 7.92719C54.0738 8.16815 53.7772 8.35353 53.4251 8.5018C53.0729 8.65007 52.7022 8.70571 52.313 8.70571C51.4974 8.70571 50.8301 8.44616 50.2741 7.89014C49.718 7.35258 49.4585 6.70386 49.4585 5.96243C49.4585 5.59173 49.5326 5.23955 49.6809 4.90591C49.8292 4.57227 50.0331 4.2757 50.2926 4.03474C50.5521 3.79377 50.8672 3.58989 51.2008 3.4416C51.553 3.29332 51.9237 3.21918 52.3315 3.21918C52.7207 3.21918 53.0914 3.29332 53.4436 3.42307C53.7958 3.57135 54.1109 3.75671 54.3518 3.99767C54.6113 4.23863 54.8152 4.5352 54.9635 4.86883C55.0932 5.22101 55.1674 5.59172 55.1674 5.98097ZM49.8107 10.8187H54.8152V25.9807H49.8107V10.8187Z" fill="#222222"/>
<path id="Vector_6" d="M63.8606 14.5258V20.3274C63.8606 21.0503 63.9903 21.5693 64.2684 21.94C64.5464 22.2921 65.0283 22.4775 65.7512 22.4775C65.9921 22.4775 66.2516 22.459 66.5297 22.4219C66.8077 22.3848 67.0301 22.3293 67.2155 22.2366L67.2711 25.8881C66.9189 26.0178 66.4926 26.1104 65.9551 26.2031C65.4175 26.2958 64.8986 26.3329 64.361 26.3329C63.3416 26.3329 62.489 26.2031 61.8031 25.9436C61.1173 25.6842 60.5612 25.332 60.135 24.8501C59.7271 24.3682 59.4121 23.8121 59.2267 23.1448C59.0414 22.4775 58.9487 21.7546 58.9487 20.9391V14.5258H56.5576V10.8187H58.9672V6.83356H63.8791V10.8187H67.4379V14.5258H63.8606Z" fill="#222222"/>
<path id="Vector_7" d="M85.5098 26.0178C84.1011 26.37 82.5631 26.5368 80.8945 26.5368C79.1706 26.5368 77.5767 26.2588 76.1313 25.7212C74.6853 25.1652 73.4252 24.4052 72.387 23.4043C71.3488 22.4034 70.5152 21.2171 69.9401 19.8269C69.347 18.4368 69.0505 16.8798 69.0505 15.1745C69.0505 13.4508 69.347 11.8938 69.9587 10.4851C70.5518 9.0764 71.3861 7.89012 72.4423 6.90772C73.4992 5.92534 74.7413 5.16539 76.1493 4.6464C77.5767 4.1274 79.0967 3.84937 80.7466 3.84937C82.4518 3.84937 84.0271 4.10886 85.4918 4.62786C86.9558 5.14685 88.1419 5.83266 89.0502 6.72237L85.7697 10.4665C85.2692 9.87337 84.5836 9.39145 83.7679 9.02075C82.9336 8.65005 81.988 8.46473 80.9318 8.46473C80.0236 8.46473 79.1706 8.63153 78.411 8.96518C77.6326 9.29883 76.9649 9.76222 76.4092 10.3739C75.8348 10.967 75.3896 11.6899 75.0931 12.5055C74.7779 13.321 74.6113 14.2292 74.6113 15.1931C74.6113 16.194 74.7592 17.1022 75.0378 17.9364C75.3157 18.7705 75.7422 19.4933 76.2979 20.0865C76.8536 20.6796 77.54 21.1615 78.3736 21.4952C79.1893 21.8288 80.1349 21.9956 81.191 21.9956C81.8028 21.9956 82.3779 21.9585 82.9336 21.8659C83.4714 21.7732 83.9905 21.6249 84.4536 21.421V17.4915H80.3388V13.2469H89.2355V24.6647C88.1419 25.2208 86.9185 25.6657 85.5098 26.0178Z" fill="#222222"/>
<path id="Vector_8" d="M107.975 18.3441C107.975 19.5861 107.752 20.6982 107.308 21.7176C106.863 22.7185 106.251 23.5712 105.473 24.2755C104.695 24.9799 103.805 25.5174 102.785 25.9066C101.766 26.2959 100.691 26.4813 99.5228 26.4813C98.392 26.4813 97.2985 26.2959 96.2789 25.9066C95.2601 25.5174 94.3518 24.9799 93.5915 24.2755C92.8318 23.5712 92.2201 22.7185 91.7749 21.7176C91.3305 20.7167 91.1079 19.5861 91.1079 18.3441C91.1079 17.1023 91.3305 15.9902 91.7749 14.9892C92.2201 13.9884 92.8318 13.1543 93.5915 12.4684C94.3518 11.7826 95.2414 11.245 96.2789 10.8929C97.2985 10.5222 98.392 10.3369 99.5228 10.3369C100.672 10.3369 101.766 10.5222 102.785 10.8929C103.805 11.2636 104.695 11.7826 105.473 12.4684C106.251 13.1543 106.844 14.0069 107.308 14.9892C107.752 15.9902 107.975 17.1023 107.975 18.3441ZM103.175 18.3441C103.175 17.8622 103.101 17.3803 102.933 16.9169C102.767 16.4535 102.544 16.0458 102.229 15.6751C101.932 15.3229 101.543 15.0263 101.099 14.8039C100.654 14.5815 100.135 14.4703 99.5415 14.4703C98.9484 14.4703 98.4293 14.5815 97.9849 14.8039C97.5397 15.0263 97.1692 15.3229 96.8727 15.6751C96.5761 16.0272 96.3536 16.435 96.205 16.9169C96.057 17.3803 95.9824 17.8622 95.9824 18.3441C95.9824 18.8261 96.057 19.3081 96.205 19.7714C96.3536 20.2348 96.5761 20.6611 96.8907 21.0318C97.1872 21.4025 97.577 21.7176 98.0215 21.9401C98.4666 22.1625 98.9857 22.2737 99.5788 22.2737C100.172 22.2737 100.691 22.1625 101.135 21.9401C101.581 21.7176 101.951 21.421 102.266 21.0318C102.563 20.6611 102.804 20.2348 102.952 19.7714C103.101 19.3081 103.175 18.8261 103.175 18.3441Z" fill="#222222"/>
<path id="Vector_9" d="M110.515 23.0151C111.46 23.0151 112.257 23.7565 112.257 24.739C112.257 25.7399 111.442 26.4813 110.515 26.4813C109.569 26.4813 108.753 25.7399 108.753 24.739C108.753 23.738 109.551 23.0151 110.515 23.0151ZM110.515 23.2932C109.718 23.2932 109.087 23.9234 109.087 24.739C109.087 25.5916 109.718 26.1847 110.515 26.1847C111.312 26.1847 111.923 25.5731 111.923 24.739C111.923 23.9049 111.293 23.2932 110.515 23.2932ZM110.144 25.7399H109.829V23.738H110.589C111.07 23.738 111.293 23.9234 111.293 24.3126C111.293 24.6648 111.07 24.8316 110.774 24.8687L111.349 25.7399H111.015L110.477 24.8687H110.125V25.7399H110.144ZM110.144 24.6278H110.515C110.885 24.6278 111.015 24.5165 111.015 24.2941C111.015 24.1087 110.922 23.9975 110.57 23.9975H110.162V24.6278H110.144Z" fill="#222222"/>
</g>
<defs>
<clipPath id="clip0_21_1938">
<rect width="112.669" height="28.34" fill="white" transform="translate(0.211182 0.40332)"/>
</clipPath>
</defs>
</svg>
