<svg width="156" height="29" viewBox="0 0 156 29" fill="none" xmlns="http://www.w3.org/2000/svg">
<g clip-path="url(#clip0_21_1950)">
<path d="M32.1233 8.48711C26.4742 8.48711 22.1029 12.7239 22.1029 18.4402C22.1029 24.1565 26.407 28.3933 32.1233 28.3933C37.8396 28.3933 42.2108 24.0893 42.2108 18.4402C42.2108 12.7911 37.9068 8.48711 32.1233 8.48711ZM32.1905 24.2237C28.9624 24.2237 26.6759 21.7355 26.6759 18.373C26.6759 15.0104 28.9624 12.5221 32.1905 12.5221C35.4185 12.5221 37.7723 15.0104 37.7723 18.373C37.7723 21.7355 35.3513 24.2237 32.1905 24.2237ZM43.4213 12.7911H46.1786V27.9898H50.6844V8.82335H43.4213V12.7911ZM10.872 12.5894C13.2258 12.5894 15.1088 14.0016 15.7813 16.1537H20.4889C19.6146 11.5806 15.8486 8.41987 10.872 8.41987C5.29024 8.48711 0.918945 12.7239 0.918945 18.4402C0.918945 24.1565 5.22298 28.3933 10.9393 28.3933C15.7813 28.3933 19.6146 25.2998 20.4889 20.6595H15.7813C15.1088 22.8115 13.2258 24.291 10.9393 24.291C7.71125 24.291 5.42474 21.8027 5.42474 18.4402C5.42474 15.0777 7.64401 12.5894 10.872 12.5894ZM128.225 16.5572L124.929 16.0864C123.382 15.8847 122.239 15.3467 122.239 14.1362C122.239 12.7911 123.719 12.1187 125.669 12.1187C127.821 12.1187 129.233 13.0601 129.502 14.5396H133.806C133.335 10.7064 130.376 8.41987 125.803 8.41987C121.096 8.41987 117.935 10.8409 117.935 14.2706C117.935 17.4987 119.953 19.449 124.122 19.987L127.418 20.4577C129.032 20.6595 129.906 21.332 129.906 22.4752C129.906 24.022 128.359 24.6273 126.207 24.6273C123.584 24.6273 122.104 23.5513 121.836 21.9372H117.464C117.868 25.7033 120.827 28.3261 126.14 28.3261C130.982 28.3261 134.277 26.1068 134.277 22.2735C134.277 18.911 131.923 17.1625 128.225 16.5572ZM48.4651 0.955048C46.8511 0.955048 45.5734 2.16556 45.5734 3.77957C45.5734 5.39359 46.7839 6.6041 48.4651 6.6041C50.0792 6.6041 51.3569 5.39359 51.3569 3.77957C51.3569 2.16556 50.0792 0.955048 48.4651 0.955048ZM113.967 15.4139C113.967 11.2444 111.412 8.48711 106.099 8.48711C101.055 8.48711 98.2304 11.0426 97.6251 14.9432H102.064C102.266 13.3964 103.476 12.1859 106.032 12.1859C108.318 12.1859 109.394 13.1947 109.394 14.4052C109.394 16.0192 107.376 16.4227 104.821 16.6917C101.391 17.0952 97.1545 18.2384 97.1545 22.677C97.1545 26.1068 99.7098 28.3261 103.812 28.3261C107.041 28.3261 108.991 26.981 110 24.8963C110.134 26.7793 111.546 27.9898 113.564 27.9898H116.187V24.022H113.967V15.4139ZM109.529 20.1887C109.529 22.7442 107.309 24.6273 104.552 24.6273C102.871 24.6273 101.459 23.9547 101.459 22.408C101.459 20.5249 103.745 19.987 105.83 19.7852C107.848 19.5835 108.924 19.18 109.529 18.3057V20.1887ZM85.8567 8.48711C83.3684 8.48711 81.2836 9.4959 79.8042 11.2444V0.753296H75.3652V27.9898H79.7365V25.5015C81.2159 27.3173 83.3684 28.3933 85.8567 28.3933C91.2368 28.3933 95.2715 24.1565 95.2715 18.4402C95.2715 12.7239 91.1691 8.48711 85.8567 8.48711ZM85.1843 24.2237C81.956 24.2237 79.6695 21.7355 79.6695 18.373C79.6695 15.0104 82.023 12.5221 85.2514 12.5221C88.479 12.5221 90.7655 15.0104 90.7655 18.373C90.7655 21.8027 88.412 24.2237 85.1843 24.2237ZM64.6725 8.48711C61.7808 8.48711 59.8977 9.6976 58.7545 11.3116V8.82335H54.316V27.9898H58.7545V17.5659C58.7545 14.6069 60.6375 12.5894 63.3947 12.5894C65.9503 12.5894 67.5643 14.4052 67.5643 17.0279V27.9898H72.0028V16.6917C72.0028 11.8497 69.5146 8.48711 64.6725 8.48711ZM155.528 17.835C155.528 12.3204 151.493 8.48711 146.113 8.48711C140.397 8.48711 136.16 12.7911 136.16 18.4402C136.16 24.4255 140.665 28.3933 146.18 28.3933C150.82 28.3933 154.452 25.636 155.393 21.7355H150.753C150.081 23.4168 148.467 24.4255 146.247 24.4255C143.355 24.4255 141.204 22.677 140.733 19.5162H155.528V17.835ZM141.002 16.3555C141.742 13.6654 143.692 12.3877 146.046 12.3877C148.602 12.3877 150.485 13.7999 150.955 16.3555H141.002Z" fill="#0052FF"/>
</g>
<defs>
<clipPath id="clip0_21_1950">
<rect width="154.784" height="27.64" fill="white" transform="translate(0.918945 0.753296)"/>
</clipPath>
</defs>
</svg>
