<svg width="176" height="35" viewBox="0 0 176 35" fill="none" xmlns="http://www.w3.org/2000/svg">
<g id="wallet-01.svg" clip-path="url(#clip0_21_1925)">
<path id="Vector" fill-rule="evenodd" clip-rule="evenodd" d="M1.60078 12.1156L0.435059 6.39296L2.23689 1.09424L13.5762 5.33328L22.9019 5.33322L34.1365 1.17227L34.2411 1.09424L34.2529 1.12914L34.3472 1.09424L34.2623 1.15662L36.0426 6.39296L34.8769 12.1156L35.7247 12.6455L34.559 13.4932L35.4068 14.1291L34.2411 15.1888L34.9828 15.6127L33.393 17.5203L35.8304 25.0445H29.3659L27.1398 25.0987L29.2601 25.1505L25.6415 30.5264L25.6571 30.6613L21.3122 32.6746V31.4029L20.8882 28.3298L24.9346 25.2171L24.9181 25.0713L24.9155 25.1505L20.8316 28.292L20.8882 28.3298L21.2061 31.403L20.8882 31.0851H15.5895L15.4117 31.2628L15.3948 31.386L15.5897 31.191H20.8885L21.2064 31.5088V32.7806L25.6571 30.6613L24.1737 31.9328L20.9944 34.0523H15.5897L12.5165 31.9328L10.9264 30.6611L15.2718 32.7806V32.7301L10.9264 30.6611L11.5527 25.237L11.5426 25.2172L10.9264 30.6611L2.97838 32.8866L0.752911 25.1505L7.21735 25.0445L7.28624 25.1488L9.39053 25.0975L7.21735 25.0445H0.752911L3.16563 17.5965L1.60078 15.7187L2.3426 15.1888L1.17688 14.1291L2.02468 13.4932L0.858957 12.6455L1.60078 12.1156ZM8.27747 18.6861L16.0073 18.9995L16.0129 19.1057L8.33213 18.7943L8.27747 18.6861ZM20.1461 21.6533V27.8887L20.3585 19.1105L21.1004 23.1365L21.2008 23.1071L21.2239 23.1001L25.0214 21.9713L24.919 25.0446L25.0245 25.0472L25.127 21.9711L22.372 20.6996L22.3529 20.7396L22.2659 20.6995L21.1768 22.9767L20.4645 19.11L28.1993 18.7964L28.3062 18.6859L26.0849 15.4069L28.2006 18.7921L20.3585 19.1105L20.3575 19.1168L20.1461 21.6533ZM11.5591 25.1504L11.5623 25.1504L11.5599 25.1747L11.5591 25.1504ZM11.5598 25.0659L11.5623 25.1504L11.5589 25.1437L11.5571 25.0897L11.5598 25.0659ZM8.39025 18.9086L8.38631 18.901L11.4567 21.9713L11.5591 25.0446L11.5556 25.0447L11.4567 22.0773L8.39025 18.9086ZM11.4567 21.9713L14.212 20.6995L15.3777 23.1369L11.4567 21.9713ZM20.9978 10.904L27.2697 6.29509L21.0407 10.9421L20.9978 10.904ZM15.6955 28.3298L10.9287 30.6602L15.6727 28.4945L15.6955 28.3298Z" fill="#F5841F"/>
<path id="Vector_2" d="M25.657 30.6613L29.3657 25.0445L35.8302 25.1505L33.6047 32.8866L25.657 30.6613Z" fill="#F5841F"/>
<path id="Vector_3" d="M54.8817 9.46617H52.6563C52.6563 9.46617 52.5503 9.46617 52.5503 9.57217L50.6428 15.8246C50.6428 15.9307 50.5368 15.9307 50.4308 15.8246L48.5233 9.57217C48.5233 9.57217 48.5233 9.46617 48.4173 9.46617H45.1321C45.1321 9.46617 45.0261 9.46617 45.0261 9.57217V25.4683C45.0261 25.4683 45.0261 25.5743 45.1321 25.5743H47.4635C47.4635 25.5743 47.5695 25.5743 47.5695 25.4683V13.2813C47.5695 13.1753 47.6754 13.1753 47.7814 13.2813L49.689 19.5337L49.7949 19.9577C49.7949 19.9577 49.7949 20.0636 49.9009 20.0636H51.7025C51.7025 20.0636 51.8085 20.0636 51.8085 19.9577L51.9144 19.5337L53.822 13.2813C53.822 13.1753 54.0339 13.1753 54.0339 13.2813V25.3623C54.0339 25.3623 54.0339 25.4683 54.1399 25.4683H56.4714C56.4714 25.4683 56.5773 25.4683 56.5773 25.3623V9.46617C56.5773 9.46617 56.5773 9.36023 56.4714 9.36023H54.8817V9.46617Z" fill="#222222"/>
<path id="Vector_4" d="M64.5432 23.0309V18.1561C64.5432 18.1561 64.5432 18.0501 64.6491 18.0501H70.7954C70.7954 18.0501 70.9018 18.0501 70.9018 17.9441V15.9307C70.9018 15.9307 70.9018 15.8246 70.7954 15.8246H64.6491C64.6491 15.8246 64.5432 15.8246 64.5432 15.7187V11.4797C64.5432 11.4797 64.5432 11.3737 64.6491 11.3737H71.6433C71.6433 11.3737 71.7497 11.3737 71.7497 11.2678V9.46617C71.7497 9.46617 71.7497 9.36023 71.6433 9.36023H62.2117C62.2117 9.36023 62.1057 9.36023 62.1057 9.46617V25.1504C62.1057 25.1504 62.1057 25.2564 62.2117 25.2564H71.8554C71.8554 25.2564 71.9611 25.2564 71.9611 25.1504V23.0309C71.9611 23.0309 71.9611 22.925 71.8554 22.925L64.5432 23.0309Z" fill="#222222"/>
<path id="Vector_5" d="M88.4052 9.36023H77.5959C77.5959 9.36023 77.4895 9.36023 77.4895 9.46617V11.4797C77.4895 11.4797 77.4895 11.5857 77.5959 11.5857H81.8348V25.3623C81.8348 25.3623 81.8348 25.4683 81.9405 25.4683H84.2721C84.2721 25.4683 84.3778 25.4683 84.3778 25.3623V11.5857H88.6173C88.6173 11.5857 88.7231 11.5857 88.7231 11.4797L88.4052 9.36023Z" fill="#222222"/>
<path id="Vector_6" d="M104.001 25.4683H106.121C106.226 25.4683 106.226 25.3623 106.226 25.3623L101.881 9.46617C101.881 9.46617 101.881 9.36023 101.775 9.36023H98.7022C98.7022 9.36023 98.5958 9.36023 98.5958 9.46617L94.2512 25.3623C94.2512 25.4683 94.2512 25.4683 94.3569 25.4683H96.4764C96.4764 25.4683 96.5828 25.4683 96.5828 25.3623L97.8543 20.6995C97.8543 20.6995 97.8543 20.5935 97.96 20.5935H102.623C102.623 20.5935 102.729 20.5935 102.729 20.6995L104.001 25.4683C103.895 25.4683 103.895 25.4683 104.001 25.4683ZM98.4901 18.474L100.186 12.3275C100.186 12.2216 100.292 12.2216 100.397 12.3275L102.093 18.474C102.093 18.58 102.093 18.58 101.987 18.58H98.5958C98.4901 18.58 98.4901 18.474 98.4901 18.474Z" fill="#222222"/>
<path id="Vector_7" d="M119.491 9.46617C119.384 9.46617 119.384 9.46617 119.491 9.46617L117.477 15.7187C117.477 15.8246 117.371 15.8246 117.265 15.7187L115.358 9.46617C115.358 9.46617 115.358 9.36023 115.252 9.36023H111.86C111.86 9.36023 111.755 9.36023 111.755 9.46617V25.3623C111.755 25.3623 111.755 25.4683 111.86 25.4683H114.192C114.192 25.4683 114.298 25.4683 114.298 25.3623V13.2813C114.298 13.1753 114.404 13.1753 114.51 13.2813L116.418 19.5337L116.524 19.9577C116.524 19.9577 116.524 20.0636 116.629 20.0636H118.431C118.431 20.0636 118.537 20.0636 118.537 19.9577L118.643 19.5337L120.55 13.2813C120.55 13.1753 120.762 13.1753 120.762 13.2813V25.3623C120.762 25.3623 120.762 25.4683 120.868 25.4683H123.2C123.2 25.4683 123.306 25.4683 123.306 25.3623V9.46617C123.306 9.46617 123.306 9.36023 123.2 9.36023H119.491V9.46617Z" fill="#222222"/>
<path id="Vector_8" d="M138.584 25.4683H140.703C140.81 25.4683 140.81 25.3623 140.81 25.3623L136.464 9.46617C136.464 9.46617 136.464 9.36023 136.359 9.36023H133.285C133.285 9.36023 133.179 9.36023 133.179 9.46617L128.834 25.3623C128.834 25.4683 128.834 25.4683 128.94 25.4683H131.06C131.06 25.4683 131.165 25.4683 131.165 25.3623L132.438 20.6995C132.438 20.6995 132.438 20.5935 132.543 20.5935H137.206C137.206 20.5935 137.312 20.5935 137.312 20.6995L138.584 25.4683ZM133.179 18.474L134.875 12.3275C134.875 12.2216 134.981 12.2216 135.087 12.3275L136.782 18.474C136.782 18.58 136.782 18.58 136.676 18.58H133.285C133.179 18.58 133.179 18.474 133.179 18.474Z" fill="#222222"/>
<path id="Vector_9" d="M154.603 17.7322C153.65 17.0964 152.59 16.6725 151.636 16.1426C151 15.8246 150.365 15.5068 149.729 14.9769C148.775 14.235 148.987 12.6454 149.941 12.0096C151.318 11.0558 153.65 11.5857 153.968 13.4932C153.968 13.4932 153.968 13.5992 154.074 13.5992H156.194C156.299 13.5992 156.299 13.5992 156.299 13.4932C156.194 12.2216 155.664 11.0558 154.71 10.4199C153.862 9.78411 152.802 9.36023 151.743 9.36023C146.126 9.36023 145.596 15.2948 148.669 17.0964C148.987 17.3083 151.954 18.792 153.014 19.4278C154.074 20.0636 154.392 21.2294 153.968 22.1831C153.544 23.0309 152.484 23.6668 151.425 23.5608C150.259 23.4549 149.305 22.819 148.987 21.8652C148.881 21.6532 148.881 21.3354 148.881 21.2294C148.881 21.2294 148.881 21.1234 148.775 21.1234H146.444C146.444 21.1234 146.338 21.1234 146.338 21.2294C146.338 22.925 146.762 23.7727 147.927 24.6206C148.987 25.4683 150.152 25.7863 151.318 25.7863C154.498 25.7863 156.087 23.9847 156.405 22.1831C156.723 20.3816 156.194 18.792 154.603 17.7322Z" fill="#222222"/>
<path id="Vector_10" d="M174.633 25.2564L166.684 17.0964V16.9904L173.891 9.57217C173.997 9.46617 173.891 9.46617 173.785 9.46617H170.817C170.817 9.46617 170.817 9.46617 170.712 9.46617L164.671 15.7187C164.565 15.8246 164.565 15.7187 164.565 15.6127V9.46617C164.565 9.46617 164.565 9.36023 164.459 9.36023H162.127C162.127 9.36023 162.022 9.36023 162.022 9.46617V25.3623C162.022 25.3623 162.022 25.4683 162.127 25.4683H164.459C164.459 25.4683 164.565 25.4683 164.565 25.3623V18.368C164.565 18.2621 164.671 18.2621 164.671 18.2621L171.559 25.3623C171.559 25.3623 171.559 25.3623 171.665 25.3623H174.633C174.633 25.3623 174.738 25.2564 174.633 25.2564Z" fill="#222222"/>
</g>
<defs>
<clipPath id="clip0_21_1925">
<rect width="174.834" height="33.17" fill="white" transform="translate(0.329102 0.988281)"/>
</clipPath>
</defs>
</svg>
