<svg width="23" height="16" viewBox="0 0 23 16" fill="none" xmlns="http://www.w3.org/2000/svg">
<path d="M21.7461 2.58691C22.2148 4.22754 22.2148 7.74316 22.2148 7.74316C22.2148 7.74316 22.2148 11.2197 21.7461 12.8994C21.5117 13.8369 20.7695 14.54 19.8711 14.7744C18.1914 15.2041 11.5508 15.2041 11.5508 15.2041C11.5508 15.2041 4.87109 15.2041 3.19141 14.7744C2.29297 14.54 1.55078 13.8369 1.31641 12.8994C0.847656 11.2197 0.847656 7.74316 0.847656 7.74316C0.847656 7.74316 0.847656 4.22754 1.31641 2.58691C1.55078 1.64941 2.29297 0.907227 3.19141 0.672852C4.87109 0.204102 11.5508 0.204102 11.5508 0.204102C11.5508 0.204102 18.1914 0.204102 19.8711 0.672852C20.7695 0.907227 21.5117 1.64941 21.7461 2.58691ZM9.36328 10.9072L14.9102 7.74316L9.36328 4.5791V10.9072Z" fill="#0F051D"/>
</svg>
